# xmcd
#
# Track frame offsets:
# 150
# 19206
# 34538
# 50536
# 67350
# 82823
# 100598
# 120294
# 138423
# 157446
# 171076
# 189570
# 207867
#
# Disc length: 2979 seconds
#
#
# Revision: 0
# Processed by: cddbd v1.5.2PL0 Copyright (c) Steve Scherf et al.
# Submitted via: FreeRIP 2.945 
#
DISCID=af0ba10d
DTITLE=ALAN JACKSON - LIKE RED ON A ROSE
DYEAR=2006
DGENRE=Country
TTITLE0=Anywhere On Earth You Are
TTITLE1=Good Imitation Of The Blues
TTITLE2=Lake Red a Rose
TTITLE3=Nobody Said That It Would Be Easy
TTITLE4=Don´t Change On Me
TTITLE5=The Firefly´s Song
TTITLE6=Wait a Minute
TTITLE7=Had It Not Been You
TTITLE8=A Woman´s Love
TTITLE9=Don´t Ask Why
TTITLE10=As Lovely As You
TTITLE11=Where Do I Go From Here
TTITLE12=Bluebird
EXTD=BY Juninho
EXTT0=
EXTT1=
EXTT2=
EXTT3=
EXTT4=
EXTT5=
EXTT6=
EXTT7=
EXTT8=
EXTT9=
EXTT10=
EXTT11=
EXTT12=
PLAYORDER=
